<?xml version="1.0" standalone="no"?><!DOCTYPE svg PUBLIC "-//W3C//DTD SVG 1.1//EN" "http://www.w3.org/Graphics/SVG/1.1/DTD/svg11.dtd"><svg class="icon" width="200px" height="200.00px" viewBox="0 0 1024 1024" version="1.1" xmlns="http://www.w3.org/2000/svg"><path d="M511.372769 512.627231m-511.372769 0a511.372769 511.372769 0 1 0 1022.745539 0 511.372769 511.372769 0 1 0-1022.745539 0Z" fill="#EB6100" /><path d="M532.680634 768.980797c0 11.767566-9.540298 21.307865-21.307865 21.307865s-21.307865-9.540298-21.307864-21.307865V256.275662c0-11.767566 9.540298-21.307865 21.307864-21.307865s21.307865 9.540298 21.307865 21.307865v512.705135z" fill="#FFFFFF" /><path d="M255.021201 533.935095c-11.767566 0-21.307865-9.540298-21.307865-21.307864s9.540298-21.307865 21.307865-21.307865h512.705135c11.767566 0 21.307865 9.540298 21.307864 21.307865s-9.540298 21.307865-21.307864 21.307864H255.021201z" fill="#FFFFFF" /></svg>