<?xml version="1.0" standalone="no"?><!DOCTYPE svg PUBLIC "-//W3C//DTD SVG 1.1//EN" "http://www.w3.org/Graphics/SVG/1.1/DTD/svg11.dtd"><svg class="icon" width="200px" height="200.00px" viewBox="0 0 1024 1024" version="1.1" xmlns="http://www.w3.org/2000/svg"><path d="M445.214808 1017.496536c-124.157044-12.415704-231.168591-63.852194-323.990763-145.441109-7.094688-6.503464-11.82448-11.233256-4.138568-21.284064 65.034642-83.362587 138.937644-152.535797 253.635104-156.674365 2.95612 0.591224 5.321016 1.773672 7.685912 3.547344 16.554273 25.422633 27.787529 53.210162 41.976906 79.815242 16.554273 31.334873 21.875289 32.517321 49.071593 8.868361 7.094688-6.503464 13.598152-14.189376 23.648961-17.145497 16.554273-3.547344 32.517321-3.547344 49.071594 0 11.82448 3.547344 18.919169 13.006928 27.787528 21.284065 20.101617 18.327945 25.422633 17.145497 39.020786-7.094689 15.963048-27.787529 24.240185-59.713626 41.976905-86.90993 2.95612-3.547344 6.503464-5.91224 10.642032-7.685912 94.595843 1.773672 165.542725 51.43649 224.665127 119.427251 47.889145 54.983834 47.297921 57.939954-11.233256 101.690531-86.909931 64.443418-180.91455 111.150115-292.655889 111.150116-11.82448 1.773672-24.240185-3.547344-35.473441 2.95612H481.870697c-11.233256-8.86836-24.831409 0-36.655889-6.503464z" fill="#00966F" /><path d="M736.097025 5.91224c12.415704 11.233256 29.561201 4.729792 43.750577 11.233257 18.919169 8.277136 27.196305 20.101617 11.82448 34.882217-36.064665 33.699769-28.378753 63.852194-2.364896 100.508083 34.882217 49.662818 31.334873 103.464203 0 154.900693-28.378753 18.327945-29.561201 17.736721-61.487298-17.145497-4.138568-6.503464-5.91224-14.7806-8.277136-21.875289-11.233256-28.969977-31.334873-42.568129-60.30485-31.926097-87.501155 30.152425-173.819861 22.466513-261.91224 0-49.662818-12.415704-59.122402-4.138568-81.588915 53.210162-20.101617 31.926097-21.284065 31.926097-52.027713 18.327945-14.7806-31.926097-26.013857-65.625866-33.699769-100.508084-19.510393-89.274827 46.706697-178.549654 137.755196-177.367205 96.960739 1.182448 192.73903-5.91224 288.517321-18.327945 7.094688-1.182448 15.963048 4.138568 20.692841-5.91224h59.122402z" fill="#332114" /><path d="M445.214808 1017.496536c12.415704-0.591224 25.422633-5.321016 36.655889 5.321016h-35.473441c0.591224-1.773672 0-3.547344-1.182448-5.321016zM583.561228 1017.496536c-1.182448 1.773672-1.182448 3.547344-1.182448 5.321016h-35.473441c10.642032-10.642032 24.240185-5.91224 36.655889-5.321016z" fill="#36AD8D" /><path d="M786.94229 319.26097c15.963048 28.969977 28.378753 58.531178 12.415705 91.639723-4.729792 10.050808-9.459584 23.648961-20.101617 23.648961-27.196305 1.182448-30.743649 21.284065-39.612009 39.612009-20.692841 43.159353-49.662818 80.406467-90.457275 105.829099-20.692841 13.006928-31.334873 27.787529-27.196305 52.027714 1.182448 6.503464 1.182448 13.598152 0 20.69284-5.321016 28.969977 6.503464 41.976905 35.473441 40.203234-1.182448 1.182448-2.95612 2.364896-4.138568 3.547344-31.926097 32.517321-68.581986 57.939954-109.967667 76.859122-18.327945 0-36.655889 0-54.983834 0.591224-43.750577-18.327945-80.997691-45.524249-115.288684-77.450346-2.364896 0-3.547344-1.182448-4.138568-2.95612 58.531178-7.094688 50.254042 1.773672 52.618938-58.531178 1.182448-26.605081-7.685912-41.976905-30.152425-56.757506-43.750577-29.561201-75.08545-71.538106-94.595843-121.200924-3.547344-8.86836-4.729792-17.736721-18.327945-19.510392-46.115473-7.685912-65.034642-65.625866-34.290993-104.646652 4.729792-5.91224 11.82448-10.050808 17.736721-14.7806 10.050808-0.591224 15.371824 6.503464 21.284064 12.415704 13.006928 21.875289 11.82448 47.889145 18.327945 73.311779 1.182448-14.7806-4.138568-28.969977 9.459584-39.020786 6.503464-0.591224 9.459584 4.729792 13.598153 8.868361 12.415704 14.7806 25.422633 28.378753 44.341801 34.290993 31.334873 4.729792 62.669746 10.642032 89.866051-11.824481 15.371824-13.006928 25.422633-30.152425 30.152425-49.071593 4.729792-18.919169 16.554273-24.240185 34.290993-24.240185 17.145497 0 27.196305 7.685912 31.334873 24.240185 4.729792 19.510393 13.598152 36.655889 30.152425 48.480369 33.108545 23.057737 67.399538 19.510393 102.281755 5.912241 7.094688-2.95612 12.415704-7.685912 18.327945-13.006929 11.82448-10.050808 20.101617-5.91224 25.422632 7.094688 6.503464-7.094688 5.91224-15.963048 7.094689-24.831408 7.685912-40.794457 7.094688-40.794457 49.071593-51.43649z" fill="#FEC68B" /><path d="M280.85453 331.08545c-8.86836 0-11.233256-8.277136-17.145496-12.415704 0-3.547344-0.591224-7.685912-0.591224-11.233256 20.692841 5.321016 36.064665-2.95612 49.071593-18.327945 10.642032-10.050808 23.648961-8.277136 36.65589-8.277136 37.247113-0.591224 75.08545 1.773672 112.332563-0.591224 24.831409-1.773672 42.568129 19.510393 62.669746 18.919168 20.692841-0.591224 37.838337-20.692841 62.669746-18.919168 35.473441 2.364896 70.946882 0.591224 106.420323 0.591224 12.415704 0 26.013857-1.182448 36.655889 8.277136 4.138568 0.591224 10.642032 0 11.233257 1.773672 8.86836 27.196305 28.969977 20.692841 48.480369 16.554273-0.591224 4.138568-1.182448 7.685912-1.773672 11.82448-1.182448 1.182448-2.364896 3.547344-4.138568 4.138568-47.889145 11.82448-33.699769 53.210162-40.203233 84.545035-1.182448 5.321016-0.591224 12.415704-9.459584 10.642032-4.729792-1.182448-4.138568-5.91224-4.138569-9.459584-0.591224-15.371824-7.685912-28.378753-15.963048-40.794457 11.233256-61.487298 15.963048-57.939954-50.254042-57.939954-22.466513 0-44.933025-0.591224-67.399538 0-25.422633 0.591224-29.561201 7.094688-27.787529 32.517321 1.773672 22.466513 20.692841 37.838337 21.284065 60.30485-2.95612 2.364896-5.321016 2.95612-8.277136 0.591224-20.692841-11.82448-28.969977-31.926097-31.926097-53.210162-2.364896-18.327945-12.415704-17.736721-26.013857-18.327945-13.598152 0-23.057737 0.591224-25.422633 18.327945-2.95612 20.692841-12.415704 40.794457-31.926097 53.210162-5.91224 1.773672-8.86836-1.182448-10.050808-6.503465 1.182448-18.919169 17.145497-30.152425 21.875289-47.889145 7.094688-28.378753 0.591224-38.429561-28.378753-39.020785-32.517321-0.591224-65.034642-0.591224-97.551963 0-27.787529 0.591224-30.152425 3.547344-23.648961 31.926097 2.364896 9.459584 6.503464 18.919169 4.729792 28.969977-2.364896 4.138568-4.729792 7.685912-10.642032 7.094688-2.364896-3.547344-4.138568-7.094688-6.503465-11.233257-14.7806-8.86836-18.919169-27.787529-34.882217-36.064665z" fill="#272222" /><path d="M374.267925 697.053118c40.203233 23.648961 78.632794 48.48037 115.288684 77.450346-49.071594 53.210162-53.210162 53.210162-85.136259-11.233256-10.642032-21.875289-20.101617-44.341801-30.152425-66.21709zM544.540443 773.91224c33.699769-29.561201 72.12933-52.618938 109.967667-76.859122-11.233256 33.699769-28.378753 64.443418-43.750577 96.369515-10.050808 21.875289-22.466513 24.831409-39.61201 7.094688-8.86836-8.277136-17.736721-17.145497-26.60508-26.605081z" fill="#F8FCFA" /><path d="M729.002336 289.108545c-49.071594 0-98.143187-0.591224-146.623556 0.591224-14.189376 0-31.926097-8.277136-39.612009 17.145497-2.364896 8.277136-34.290993 11.82448-40.203234-2.364896-7.094688-17.736721-17.145497-14.7806-28.969977-14.780601H312.189403c4.138568-60.896074 25.422633-76.859122 84.545035-61.487298 67.990762 17.145497 136.572748 30.152425 206.928406 15.371825 15.371824-3.547344 30.152425-8.277136 45.52425-12.415705 50.845266-16.554273 77.450346 2.95612 79.815242 57.939954z" fill="#FDC68B" /><path d="M280.85453 331.08545c26.013857-1.773672 26.013857 21.284065 35.473441 36.064665-12.415704 18.919169 2.364896 43.159353-14.189376 67.990763-7.685912-38.429561-14.7806-70.946882-21.284065-104.055428z" fill="#392618" /><path d="M580.605108 402.623557c2.95612-0.591224 5.321016-0.591224 8.277136-1.182448 31.926097-7.094688 65.034642 1.773672 96.369515-8.277137 7.094688 1.773672 10.642032 6.503464 8.86836 14.189377-38.429561 20.101617-76.267898 22.466513-113.515011-4.729792z" fill="#37302D" /><path d="M457.630512 394.937644l7.685912 7.685913C433.981551 428.046189 399.099334 425.681293 363.625893 413.265589c-0.591224-8.86836 6.503464-10.050808 13.006928-12.415704 27.196305 0 54.39261-2.95612 80.997691-5.912241z" fill="#37302C" /><path d="M694.711343 407.353349c-1.773672-3.547344-4.138568-7.094688-5.91224-10.642033 4.729792-14.189376 13.006928-24.240185 28.969977-25.422632 18.327945 8.277136 12.415704 23.648961 11.82448 37.838337-2.364896-7.094688-4.729792-14.7806-7.094688-21.875289-10.642032 5.321016-15.963048 17.145497-27.787529 20.101617z" fill="#3D3532" /><path d="M376.632821 407.353349c-4.729792 0.591224-9.459584 1.182448-12.415704 5.91224-18.919169-5.91224-32.517321-17.736721-41.385681-34.882217 2.364896-2.364896 4.138568-4.729792 6.503464-7.094688 20.692841 5.321016 34.882217 19.510393 47.297921 36.064665z" fill="#3C3431" /><path d="M717.76908 371.288684c-10.050808 8.277136-15.963048 20.692841-28.969977 25.422632-32.517321 19.510393-66.21709 11.82448-99.916859 4.729793-7.685912-10.050808-17.145497-19.510393-21.875289-30.152425-23.648961-53.801386-13.006928-70.355658 43.750578-70.355659 32.517321 0 65.034642 1.182448 97.551963-0.591224 21.875289-1.182448 24.240185 8.277136 21.875288 26.013857-1.182448 15.963048-7.685912 30.152425-12.415704 44.933026z" fill="#FEDCB9" /><path d="M376.632821 407.353349c-20.101617-6.503464-33.699769-21.875289-47.297921-36.655889-26.605081-70.355658-26.605081-70.355658 47.297921-70.355659 31.334873 0 62.669746 0.591224 94.004619 0 14.7806-0.591224 17.736721 5.321016 18.327945 18.919169 1.182448 30.152425-10.050808 54.983834-30.743649 75.676674-25.422633 18.327945-53.801386 14.189376-81.588915 12.415705z" fill="#FDDCB9" /></svg>