<?xml version="1.0" standalone="no"?><!DOCTYPE svg PUBLIC "-//W3C//DTD SVG 1.1//EN" "http://www.w3.org/Graphics/SVG/1.1/DTD/svg11.dtd"><svg class="icon" width="200px" height="200.00px" viewBox="0 0 1024 1024" version="1.1" xmlns="http://www.w3.org/2000/svg"><path d="M863.715237 963.419684l-22.73839-181.916099a71.859689 71.859689 0 0 0-48.580122-59.257689l-87.6818-29.228015c-12.040613-4.015035-25.248909-1.457359-34.534238 6.453697l-25.826014-8.60942a35.928721 35.928721 0 0 1-24.566263-34.085129v-57.939555l77.383729-32.243782a107.786164 107.786164 0 0 0 66.331157-99.495612v-17.96436c29.7647 0 53.893082-24.128382 53.893082-53.893083a53.713439 53.713439 0 0 0-15.485279-37.794769l18.943419-151.55633c8.845202-70.766108-24.191257-140.2298-84.666033-178.026814A183.218515 183.218515 0 0 0 639.115817 0.029192s-257.085721 0.051648-258.201757 0.134733c-37.644318 1.83461-70.193494 22.994382-87.996176 53.758349h-5.041249c-53.051003 0-97.461148 45.139947-91.487998 97.851873 0.042665 0.379497 0.087576 0.758994 0.134733 1.136246l25.567776 204.539966a53.713439 53.713439 0 0 0-15.485279 37.794769c0 29.7647 24.128382 53.893082 53.893083 53.893083v17.96436a107.790656 107.790656 0 0 0 66.328911 99.495612l77.385975 32.243782v57.937309a35.928721 35.928721 0 0 1-24.566264 34.085129l-25.826014 8.60942c-9.285329-7.911055-22.493625-10.468731-34.534238-6.453696l-87.681799 29.228015a71.859689 71.859689 0 0 0-48.580123 59.257689L160.287009 963.42193c-4.021771 32.167433 21.060967 60.57807 53.477656 60.57807H810.239826c32.414443-0.002246 57.494937-28.412882 53.475411-60.580316z" fill="#FFD7A3" /><path d="M404.213836 656.779274v0.026947c0 0.86678-0.038174 1.726824-0.103296 2.577886-0.033683 0.451355-0.089822 0.898218-0.139223 1.347327-0.04042 0.354796-0.076349 0.709592-0.127996 1.062143-0.096558 0.691628-0.220063 1.372028-0.357042 2.052428l-0.006737 0.035928a35.919739 35.919739 0 0 1-16.673172 23.6658c150.283105 25.962992 232.979794-90.201301 232.979794-90.201301h-215.572328v59.432842z" fill="#FDC88E" /><path d="M736.18624 27.867215A183.169113 183.169113 0 0 0 639.115817 0.029192h-1.365292v377.251576h161.679247l21.4225-171.384493c8.845202-70.766108-24.191257-140.232046-84.666032-178.02906z" fill="#734A3E" /><path d="M196.386392 151.774147c0.042665 0.379497 0.087576 0.758994 0.134732 1.136246l28.046859 224.370375h107.786164v-323.358494h-44.479757c-53.051003 0-97.461148 45.137702-91.487998 97.851873z" fill="#623F33" /><path d="M763.50105 341.352046v-35.928721c0-49.606337-40.215467-89.821804-89.821803-89.821804h-323.358494c-49.608582 0-89.821804 40.215467-89.821803 89.821804v35.928721c-29.7647 0-53.893082 24.130628-53.893083 53.893082 0 29.7647 24.128382 53.893082 53.893083 53.893083v17.96436a107.790656 107.790656 0 0 0 66.328911 99.495612l116.074471 48.364551a179.659326 179.659326 0 0 0 138.188599 0l116.081208-48.366796a107.786164 107.786164 0 0 0 66.331157-99.495612v-17.964361c29.7647 0 53.893082-24.128382 53.893082-53.893082s-24.130628-53.890837-53.895328-53.890837z" fill="#FFE1B2" /><path d="M386.249475 413.209489c-9.880398 0-17.964361-8.083962-17.964361-17.964361v-17.96436c0-9.880398 8.083962-17.964361 17.964361-17.964361s17.964361 8.083962 17.964361 17.964361v17.96436c0 9.880398-8.083962 17.964361-17.964361 17.964361zM637.750525 413.209489c-9.880398 0-17.964361-8.083962-17.964361-17.964361v-17.96436c0-9.880398 8.083962-17.964361 17.964361-17.964361s17.964361 8.083962 17.964361 17.964361v17.96436c0 9.880398-8.083962 17.964361-17.964361 17.964361z" fill="#623F33" /><path d="M512 539.451789c-31.938388 0-61.81312-7.859408-81.962396-21.568461-8.200731-5.577934-10.333999-16.754012-4.744837-24.954742 5.568952-8.191748 16.754012-10.325016 24.954743-4.744837 14.122233 9.604196 37.208682 15.341564 61.75249 15.341564s47.630257-5.737368 61.75249-15.341564a17.946396 17.946396 0 0 1 24.954743 4.744837 17.957624 17.957624 0 0 1-4.744837 24.954742c-20.149276 13.709053-50.026254 21.568461-81.962396 21.568461z" fill="#E4B07B" /><path d="M673.679247 215.601521h-323.358494c-6.161776 0-12.166363 0.644471-17.96436 1.843593v-0.033684c-40.996917 8.324236-71.857443 44.558351-71.857443 88.011895v35.928721c-29.7647 0-53.893082 24.128382-53.893083 53.893082s24.128382 53.893082 53.893083 53.893083v17.96436a107.786164 107.786164 0 0 0 66.328911 99.495612l116.072225 48.364551a179.901845 179.901845 0 0 0 17.351327 6.173003c-51.297232-37.525304-85.442991-70.330472-105.450797-91.779919-14.555623-15.606538-22.444223-36.200432-22.444223-57.542093v-203.621538c99.738131 79.586609 314.838895 73.155368 431.144657 73.155368v-35.92423c0-49.606337-40.215467-89.821804-89.821803-89.821804z" fill="#FFD7A3" /><path d="M637.750525 0.029192h-251.50105c-59.5294 0-107.786164 48.256764-107.786165 107.786165 0 103.856461 98.797247 166.740705 179.643608 197.607968 0 0-9.015864-16.4576-21.159772-40.781345 71.7025 23.986913 182.446048 40.781344 333.29054 40.781345v-51.647537c0-261.981009-132.48716-253.746595-132.487161-253.746596zM764.210643 323.309091h-91.656414c-0.06063 0-0.114523 0.015719-0.175153 0.017965a71.415071 71.415071 0 0 0-34.630796-8.921551c-33.126281 0-61.076581 22.540782-69.353661 53.084686-10.271123-20.784765-31.689132-35.120325-56.396865-35.120325s-46.125742 14.33556-56.396865 35.120325c-8.277079-30.543904-36.227379-53.084686-69.35366-53.084686a71.408334 71.408334 0 0 0-34.601604 8.903586h-91.148921c-4.9649 0-8.98218 4.01728-8.98218 8.982181s4.01728 8.98218 8.98218 8.98218h69.778068c-9.925309 12.323551-15.884986 27.97051-15.884986 44.989496 0 39.622643 32.237045 71.857443 71.857443 71.857443 33.528234 0 61.763718-23.086449 69.654563-54.196231 0.707347 0.179644 1.437149 0.303149 2.20288 0.303149 4.9649 0 8.98218-4.01728 8.982181-8.982181 0-24.761626 20.149276-44.910902 44.910901-44.910901s44.910902 20.149276 44.910902 44.910901c0 4.9649 4.01728 8.98218 8.982181 8.982181 0.763485 0 1.493287-0.123505 2.202879-0.303149 7.893091 31.109782 36.126329 54.196231 69.654564 54.196231 39.622643 0 71.857443-32.2348 71.857443-71.857443 0-17.018986-5.959677-32.665944-15.884986-44.989496h70.489906c4.9649 0 8.98218-4.01728 8.98218-8.98218s-4.01728-8.98218-8.98218-8.982181z m-377.961168 116.846939c-29.717544 0-53.893082-24.175538-53.893082-53.893082s24.175538-53.893082 53.893082-53.893082 53.893082 24.175538 53.893082 53.893082-24.175538 53.893082-53.893082 53.893082z m251.50105 0c-29.717544 0-53.893082-24.175538-53.893082-53.893082s24.175538-53.893082 53.893082-53.893082 53.893082 24.175538 53.893082 53.893082-24.175538 53.893082-53.893082 53.893082z" fill="#734A3E" /><path d="M512 803.934335c73.159859 0 136.807589-40.687032 169.576829-100.663295l-37.222156-12.406637a35.753569 35.753569 0 0 1-9.875907-5.135561c-25.264628 41.214735-70.590956 68.803502-122.47652 68.803501s-97.211893-27.588767-122.476521-68.803501a35.937704 35.937704 0 0 1-9.875907 5.135561l-37.224401 12.406637c32.764748 59.976264 96.414724 100.663295 169.574583 100.663295z" fill="#B97E63" /><path d="M863.715237 963.419684l-22.73839-181.916099a71.857443 71.857443 0 0 0-48.577877-59.257689l-87.681799-29.228015c-15.269707-5.090651-32.448127 0.345814-41.073265 13.935853-31.844075 50.172214-87.814286 83.505085-151.64166 83.505085s-119.797585-33.332871-151.641661-83.505085c-8.625139-13.590039-25.803559-19.026504-41.073265-13.935853l-87.681799 29.228015a71.855197 71.855197 0 0 0-48.577877 59.257689l-22.73839 181.916099c-4.021771 32.165188 21.060967 60.57807 53.477657 60.57807H810.23758c32.416689 0 57.497182-28.410637 53.477657-60.57807z" fill="#FFA64E" /><path d="M197.998693 745.927415c-7.976176 10.098216-13.316082 22.298263-14.97554 35.57617l-22.73839 181.916099c-4.021771 32.167433 21.060967 60.57807 53.477657 60.57807h100.629612v-116.918796a71.866425 71.866425 0 0 0-17.544444-47.050906l-98.848895-114.100637zM825.999061 745.927415c7.976176 10.098216 13.316082 22.298263 14.975541 35.57617l22.738389 181.916099c4.021771 32.167433-21.060967 60.57807-53.477656 60.57807h-100.629612v-116.918796a71.866425 71.866425 0 0 1 17.544443-47.050906l98.848895-114.100637z" fill="#FF8C51" /></svg>