<?xml version="1.0" standalone="no"?><!DOCTYPE svg PUBLIC "-//W3C//DTD SVG 1.1//EN" "http://www.w3.org/Graphics/SVG/1.1/DTD/svg11.dtd"><svg class="icon" width="200px" height="200.00px" viewBox="0 0 1024 1024" version="1.1" xmlns="http://www.w3.org/2000/svg"><path d="M879.997298 976.000352c0 26.399806-21.599841 47.999648-47.999648 47.999648H128.00282c-26.399806 0-47.999648-21.599841-47.999648-47.999648v-133.599018C80.003172 708.802315 188.802373 600.003114 322.401392 600.003114h315.197686c133.599019 0 242.39822 108.799201 242.39822 242.39822V976.000352z" fill="#EFC75E" /><path d="M143.202708 843.201328c0-138.398984 110.399189-250.398161 247.998179-250.398161V568.003349h-62.399542C192.00235 568.003349 80.003172 680.002526 80.003172 818.40151V1024h63.99953v-180.798672z" fill="#DCB757" /><path d="M699.198625 860.001204c11.999912-2.399982 20.799847-12.799906 20.799848-24.799818 0-14.399894-11.199918-25.599812-25.599812-25.599812-7.199947 0-14.399894 3.199977-19.199859 8.799936 0.799994-2.399982 1.599988-5.599959 1.599988-7.999941 0-14.399894-11.199918-25.599812-25.599812-25.599812-13.5999 0-25.599812 11.199918-25.599812 25.599812 0 3.199977 0.799994 5.599959 1.599988 7.999941-4.799965-5.599959-5.599959-10.399924-11.999912-10.399924-12.799906 0-31.999765 12.799906-31.999765 27.1998 0 12.799906 8.799935 23.19983 20.799847 24.799818-11.999912 2.399982-20.799847 12.799906-20.799847 24.799818 0 14.399894 11.199918 25.599812 25.599812 25.599812 7.199947 0 14.399894-3.199977 19.199859-8.799935-0.799994 2.399982-1.599988 5.599959-1.599988 7.999941 0 14.399894 11.199918 25.599812 25.599812 25.599812 13.5999 0 25.599812-11.199918 25.599812-25.599812 0-3.199977-0.799994-5.599959-1.599988-7.999941 4.799965 5.599959 11.199918 8.799935 19.199859 8.799935 13.5999 0 25.599812-11.199918 25.599812-25.599812-0.799994-11.999912-9.59993-22.399836-21.599842-24.799818z m-47.199653 19.999853c-11.199918 0-19.999853-8.799935-19.999853-19.999853s8.799935-19.999853 19.999853-19.999853 19.999853 8.799935 19.999853 19.999853-8.799935 19.999853-19.999853 19.999853z" fill="#C45B4B" /><path d="M480.000235 432.004347c119.199125 0 215.998414 69.599489 215.998414 155.998855S599.19936 744.002056 480.000235 744.002056s-215.998414-69.599489-215.998414-155.998854S360.80111 432.004347 480.000235 432.004347z" fill="#D07C40" /><path d="M480.000235 96.006815c132.799025 0 239.998238 107.199213 239.998238 239.998237v95.999295c0 132.799025-107.199213 239.998238-239.998238 239.998238S240.001997 564.803372 240.001997 432.004347V336.005052c0-132.799025 107.199213-239.998238 239.998238-239.998237z" fill="#EFC2B3" /><path d="M480.000235 672.002585V528.003642c-13.5999 0-23.999824-10.399924-23.999824-23.999823s10.399924-23.999824 23.999824-23.999824V208.005992H276.801727C253.601898 244.805722 240.001997 288.805399 240.001997 336.005052v95.999295c0 132.799025 107.199213 239.998238 239.998238 239.998238z" fill="#D7AEA1" /><path d="M596.799377 62.407062C607.999295 42.407209 629.599136 12.007432 662.398896 4.007491 719.998473-11.192398 783.998003 18.407385 815.197773 66.407032c31.199771 47.999648 67.999501 145.598931 121.599107 163.998796 41.599695 14.399894-103.199242 33.599753-171.198742-7.199947C719.998473 196.006081 696.798643 140.806486 663.19889 136.006521c-11.999912-1.599988-26.399806 0.799994-39.999707 4.799965 0.799994 8.799935-27.999794 4.799965-34.399747-0.799994-26.399806-24.799818-6.399953-45.599665 7.999941-77.59943z" fill="#324D5B" /><path d="M595.999383 96.006815c23.999824 0 43.999677 19.999853 43.999677 43.999677S619.999207 184.006169 595.999383 184.006169 551.999706 164.006316 551.999706 140.006492s19.999853-43.999677 43.999677-43.999677z" fill="#F4B459" /><path d="M240.001997 304.005287c13.5999 0 72.799465-3.199977 130.399043-61.599547 23.999824 23.999824 36.79973 60.799554 109.599195 60.799553 15.199888 0 109.599195-36.79973 132.799025-36.799729 55.199595 0 95.199301 25.599812 107.199213 34.399747C701.598608 184.806163 600.799348 96.006815 480.000235 96.006815c-121.599107 0-222.398367 90.399336-239.998238 207.998472z m355.997386 79.999413c-15.199888 0-27.999794 12.799906-27.999794 27.999794s12.799906 27.999794 27.999794 27.999795 27.999794-12.799906 27.999795-27.999795-12.799906-27.999794-27.999795-27.999794z m-231.998296 0c-15.199888 0-27.999794 12.799906-27.999795 27.999794s12.799906 27.999794 27.999795 27.999795 27.999794-12.799906 27.999794-27.999795-12.799906-27.999794-27.999794-27.999794z m231.998296 0c-15.199888 0-27.999794 12.799906-27.999794 27.999794s12.799906 27.999794 27.999794 27.999795 27.999794-12.799906 27.999795-27.999795-12.799906-27.999794-27.999795-27.999794z m-231.998296 0c-15.199888 0-27.999794 12.799906-27.999795 27.999794s12.799906 27.999794 27.999795 27.999795 27.999794-12.799906 27.999794-27.999795-12.799906-27.999794-27.999794-27.999794z" fill="#324D5B" /></svg>