<?xml version="1.0" standalone="no"?><!DOCTYPE svg PUBLIC "-//W3C//DTD SVG 1.1//EN" "http://www.w3.org/Graphics/SVG/1.1/DTD/svg11.dtd"><svg class="icon" width="200px" height="200.00px" viewBox="0 0 1024 1024" version="1.1" xmlns="http://www.w3.org/2000/svg"><path fill="#707070" d="M716.8 840.192H52.224c-19.456 0-34.816-26.112-34.816-45.056s15.872-45.056 34.816-45.056H716.8c129.536 0 219.648-82.944 219.648-178.688v-56.32c0-129.536-90.112-214.528-219.648-214.528h-481.28c-19.456 0-34.816-26.112-34.816-45.056s15.872-45.056 34.816-45.056h481.28c81.408 0 158.208 31.744 215.552 89.6s89.6 134.144 89.6 215.552v55.808c0 81.408-31.744 137.728-89.6 195.072-54.272 41.472-134.144 73.728-215.552 73.728z"  /><path fill="#707070" d="M259.584 443.904L33.792 281.088c-23.04-23.04-23.04-25.6 0-48.64l225.792-163.328"  /></svg>