<?xml version="1.0" standalone="no"?><!DOCTYPE svg PUBLIC "-//W3C//DTD SVG 1.1//EN" "http://www.w3.org/Graphics/SVG/1.1/DTD/svg11.dtd"><svg class="icon" width="200px" height="200.00px" viewBox="0 0 1024 1024" version="1.1" xmlns="http://www.w3.org/2000/svg"><path fill="#707070" d="M958.984127 109.003175C956.749206 87.263492 941.409524 72.126984 921.701587 72.126984H99.961905c-19.809524 0-35.352381 15.542857-35.352381 35.352381v644.774603c0 19.809524 15.542857 35.352381 35.352381 35.352381h130.133333v141.511111c0 10.260317 5.892063 19.2 15.339683 23.568254 3.453968 1.625397 7.111111 2.336508 10.768254 2.336508 6.095238 0 12.088889-2.234921 16.965079-6.4l187.530159-161.015873h463.03492c19.809524 0 35.352381-15.542857 35.352381-35.352381V109.307937l-0.101587-0.304762zM139.987302 728.177778c-7.720635 0-15.949206-6.095238-15.949207-15.949207V149.333333c0-9.752381 6.298413-15.949206 15.949207-15.949206H881.777778c9.752381 0 15.949206 6.298413 15.949206 15.949206v562.996826c0 9.853968-8.330159 15.949206-15.949206 15.949206H437.434921L289.422222 859.530159V728.177778H139.987302z"  /><path fill="#707070" d="M352.203175 425.04127c0-27.834921-22.653968-50.590476-50.590477-50.590476-27.834921 0-50.590476 22.653968-50.590476 50.590476 0 27.834921 22.653968 50.590476 50.590476 50.590476 27.834921-0.101587 50.590476-22.755556 50.590477-50.590476zM510.780952 475.530159c27.834921 0 50.590476-22.653968 50.590477-50.590476 0-27.834921-22.653968-50.590476-50.590477-50.590477-27.834921 0-50.590476 22.653968-50.590476 50.590477 0 27.936508 22.755556 50.590476 50.590476 50.590476zM720.050794 475.530159c27.834921 0 50.590476-22.653968 50.590476-50.590476 0-27.834921-22.653968-50.590476-50.590476-50.590477-27.834921 0-50.590476 22.653968-50.590477 50.590477 0 27.936508 22.755556 50.590476 50.590477 50.590476z"  /></svg>