<?xml version="1.0" standalone="no"?><!DOCTYPE svg PUBLIC "-//W3C//DTD SVG 1.1//EN" "http://www.w3.org/Graphics/SVG/1.1/DTD/svg11.dtd"><svg t="1530512428856" class="icon" style="" viewBox="0 0 1024 1024" version="1.1" xmlns="http://www.w3.org/2000/svg" p-id="6764" xmlns:xlink="http://www.w3.org/1999/xlink" width="200" height="200"><defs><style type="text/css"></style></defs><path d="M512 512m-512 0a512 512 0 1 0 1024 0 512 512 0 1 0-1024 0Z" fill="#F9A025" p-id="6765"></path><path d="M385.786047 526.288372h290.530232v-52.390698H385.786047v52.390698z m0-130.976744h133.358139v-52.390698h-133.358139v52.390698z m0 264.334884h290.530232v-52.390698H385.786047v52.390698z m345.302325-264.334884v290.530232c0 28.576744-23.813953 52.390698-52.390698 52.390698H385.786047C357.209302 738.232558 333.395349 714.418605 333.395349 685.84186V314.344186c0-28.576744 23.813953-52.390698 52.390698-52.390698h211.944186v133.35814h133.358139z m-107.162791-28.576744V261.953488h52.390698c28.576744 0 52.390698 23.813953 52.390698 52.390698v52.390698h-104.781396z" fill="#FFFFFF" p-id="6766"></path></svg>