<?xml version="1.0" standalone="no"?><!DOCTYPE svg PUBLIC "-//W3C//DTD SVG 1.1//EN" "http://www.w3.org/Graphics/SVG/1.1/DTD/svg11.dtd"><svg class="icon" width="200px" height="200.00px" viewBox="0 0 1024 1024" version="1.1" xmlns="http://www.w3.org/2000/svg"><path fill="#707070" d="M958.272 195.968c-7.04 25.088-13.312 48.448-30.72 62.528-151.936 123.136-273.728 275.968-411.52 412.992-3.648 3.584-7.936 6.784-10.688 10.944-58.56 91.392-161.024 103.04-250.688 137.408-19.2 7.36-49.28-26.88-43.52-47.36 16.256-57.344 32.192-114.88 49.664-171.904 2.944-9.664 12.16-18.048 19.968-25.472 131.072-125.888 262.848-251.008 393.28-377.6 31.104-30.144 58.048-64.64 86.528-97.536 38.4-44.352 92.096-48 133.952-6.784 25.216 24.768 55.808 46.336 61.632 85.376 0.704 5.12 1.536 10.112 2.304 15.168 1.92 1.152-2.112 1.088-0.192 2.24z m-238.464 41.984L341.824 616.64l65.728 66.56 382.272-374.016-70.016-71.232z m30.4-53.824l91.52 87.68c5.824-7.872 11.456-17.664 19.072-25.6 54.784-56.832 54.912-56.704-2.816-111.36-1.28-1.152-2.368-2.432-3.648-3.584-16-14.336-32.128-14.464-47.872 0-18.24 16.64-36.032 33.792-56.32 52.864z m-470.4 567.04c29.248-11.776 52.288-21.12 72.064-28.992l-45.376-53.376-26.688 82.368z"  /><path fill="#707070" d="M463.168 959.808c-84.544 0-169.152 0.128-253.696-0.064-46.272-0.128-87.168-12.608-118.272-49.984-20.48-24.64-26.24-53.248-26.304-83.648C64.64 657.92 64 489.6 65.088 321.344c0.64-90.304 56.32-144.128 146.816-144.64 91.392-0.576 182.784 0 274.176-0.256 20.032 0 39.04 1.536 41.6 26.88 1.92 18.496-13.184 27.776-42.88 27.84-88.832 0.064-177.664-0.128-266.496 0.064-63.552 0.192-99.584 36.608-99.648 100.288v486.784c0 50.176 33.792 86.08 84.48 86.208 173.44 0.64 346.752 0.576 520.128 0.128 41.024-0.064 67.648-29.376 67.84-73.792 0.448-110.976 0.192-222.016 0.32-333.056 0-8.448-1.92-19.2 2.304-24.96 7.168-9.6 19.328-23.168 27.904-22.208 8.96 1.024 16.896 16.832 23.808 27.136 2.432 3.584 0.576 10.048 0.576 15.168 0 110.144 0.128 220.352 0 330.496-0.192 92.8-43.968 136.256-136.896 136.32-81.92 0.128-163.968 0-245.952 0z"  /></svg>